<svg width="32" height="32" viewBox="0 0 32 32" fill="none" xmlns="http://www.w3.org/2000/svg">
  <!-- Background with brand gradient -->
  <rect width="32" height="32" rx="8" fill="url(#gradient)" />
  
  <!-- Bus icon (simplified for favicon) -->
  <path d="M8 12h16c1.1 0 2 .9 2 2v8c0 1.1-.9 2-2 2h-1c0 1.1-.9 2-2 2s-2-.9-2-2h-6c0 1.1-.9 2-2 2s-2-.9-2-2H8c-1.1 0-2-.9-2-2v-8c0-1.1.9-2 2-2z" fill="white"/>
  <rect x="10" y="14" width="4" height="3" rx="1" fill="#e6ff00"/>
  <rect x="18" y="14" width="4" height="3" rx="1" fill="#e6ff00"/>
  <circle cx="11" cy="21" r="1.5" fill="#666"/>
  <circle cx="21" cy="21" r="1.5" fill="#666"/>
  
  <!-- Gradient definition -->
  <defs>
    <linearGradient id="gradient" x1="0%" y1="0%" x2="100%" y2="100%">
      <stop offset="0%" style="stop-color:#f7ffe6"/>
      <stop offset="50%" style="stop-color:#e6ff00"/>
      <stop offset="100%" style="stop-color:#d4e600"/>
    </linearGradient>
  </defs>
</svg> 